<svg width="979" height="1169" viewBox="0 0 979 1169" fill="none" xmlns="http://www.w3.org/2000/svg">
<g clip-path="url(#clip0_1310_5)">
<path d="M0 0H207.746H283.875H979V758.012V898.92V1169H0V0Z" fill="#E8E7E1"/>
<path d="M123.449 -92H207.899C202.016 -43.8982 193.777 6.67328 186.634 54.7429C180.918 93.1984 174.046 144.259 164.341 181.52C187.826 162.275 206.12 147.701 221.21 120.655C218.277 110.782 216.82 103.102 218.317 92.736C221.086 73.5683 237.258 58.0462 255.559 53.0015C257.43 52.496 259.315 52.0399 261.211 51.6334C266.093 84.4651 258.224 109.826 225.187 121.996C221.661 129.555 218.187 136.346 213.547 143.321C220.915 139.613 225.931 137.226 234.118 135.229C255.781 112.181 287.686 112.449 303.637 141.121C277.971 155.592 257.757 163.67 234.329 139.17C211.732 146.713 205.091 155.549 190.446 172.693C173.669 192.333 154.823 210.341 143.483 234.099C131.297 259.592 125.147 293.674 120.349 321.713C109.042 387.798 101.333 455.446 103.646 522.579C104.408 544.704 108.716 572.865 115.525 593.798C122.639 615.668 132.321 632 146.228 650.072C150.747 655.219 155.505 660.147 160.487 664.849C184.591 687.566 214.859 701.501 246.134 711.18C237.55 726.056 225.491 786.189 221.294 805.739C209.205 801.617 198.148 798.046 186.342 793.033C133.911 770.776 90.4915 734.866 61.0274 685.876C13.5008 606.854 14.0318 502.395 29.4627 414.082C38.5714 361.952 54.2491 305.71 67.2118 253.945C70.6989 239.081 74.0545 224.185 77.2785 209.261C93.3642 133.622 106.318 57.3505 116.107 -19.3582C119.14 -43.979 120.883 -67.5996 123.449 -92Z" fill="#0F110F"/>
<path d="M67.2109 253.946C70.698 239.081 74.0536 224.186 77.2777 209.262C78.5185 212.811 80.5583 216.995 80.4437 220.395C78.6889 222.427 78.2039 221.142 77.156 221.728C74.873 223.006 75.9873 229.829 75.935 231.352C75.6699 239.044 81.2469 238.786 82.2467 243.538C76.2185 245.152 75.4337 245.633 71.0947 249.84C69.2903 251.59 69.2995 252.507 67.2109 253.946Z" fill="#0F110F"/>
<path d="M146.234 650.07C150.753 655.218 155.511 660.145 160.493 664.847C158.275 664.89 153.202 665.406 151.852 663.893L153.616 660.64L153.274 659.7C151.964 659.29 150.672 658.823 149.4 658.3C146.354 657.056 142.495 655.479 141.164 652.29C143.427 651.654 144.309 651.4 146.234 650.07Z" fill="#0F110F"/>
<path d="M849.91 617.172C866.787 643.092 868.081 668.318 841.39 687.726C838.887 700.128 836.865 706.081 832.368 718.023C836.985 715.569 841.807 712.854 846.615 710.875C857.122 681.399 876.918 672.78 906.741 681.052C900.095 712.374 878.431 725.199 848.376 713.894C829.512 724.839 824.428 731.881 811.37 748.842C805.918 755.92 794.408 764.963 787.302 770.386C862.417 782.702 916.505 802.647 979 846.922V1021.46C960.999 997.18 941.506 974.039 920.641 952.17C852.505 882.005 773.275 843.726 674.432 841.873C641.526 841.258 609.293 844.15 576.433 845.946C547.852 847.671 519.212 848.23 490.586 847.622C492.48 835.906 493.157 818.499 493.944 806.416C502.013 806.515 513.119 805.596 521.461 804.966C559.632 802.075 600.83 797.67 636.4 782.843C646.999 778.432 654.592 772.952 662.9 765.387C682.867 764.348 704.983 765.139 725.076 765.012C733.377 764.956 750.36 767.338 757.374 766.073C767.979 764.157 785.69 754.414 794.57 748.036C794.337 742.932 793.722 737.848 792.739 732.828C762.061 728.904 752.41 708.768 754.574 679.772C763.058 680.168 773.317 683.216 780.501 687.748C790.349 694.005 796.487 704.709 796.911 716.368C797.392 729.031 796.069 731.562 799.053 744.996C818.009 729.604 831.244 711.532 837.565 687.684C817.881 660.598 823.135 636.559 849.91 617.172Z" fill="#0F110F"/>
<path d="M457.513 361.431C455.859 349.097 461.478 322.589 444.971 324.996C439.457 325.8 431.4 330.902 427.432 328.383C421.869 319.717 420.585 291.288 422.76 281.04C433.84 228.816 505.555 205.899 535.836 255.79C541.044 264.37 543.136 271.059 546.135 280.529C570.193 280.015 564.549 315.801 554.623 329.111C549.656 331.585 549.514 331.979 544.018 331.174L543.526 331.784C544.309 335.009 547.561 347.195 547.732 349.818C548.363 359.455 543.128 373.504 538.014 381.528C527.438 398.121 514.848 411.017 495.288 415.541C494.072 415.82 492.848 416.06 491.617 416.262C496.438 421.943 503.204 426.777 510.808 426.79C541.887 426.841 572.568 397.267 580.122 369.282C567.773 362.943 561.541 355.567 559.505 341.608C562.092 345.912 570.155 359.816 573.765 361.494C599.122 373.281 628.295 377.379 654.71 386.786C698.652 402.434 713.457 440.947 726.53 481.761C729.599 491.244 737.447 516.252 737.963 526.635C738.033 528.022 733.961 531.469 732.604 532.549C738.182 560.552 748.137 623.797 733.098 649.42C728.425 657.367 716.271 660.747 707.553 662.352C702.399 663.271 697.224 664.063 692.034 664.727C691.27 676.917 688.138 710.388 685.084 721.205C660.303 694.635 642.987 679.476 610.853 660.719C607.664 658.93 606.342 657.954 603.45 655.72C637.487 661.588 668.009 666.17 702.59 659.778C723.151 655.974 733.374 653.182 736.33 629.673C740.72 594.74 733.346 558.88 727.972 524.459C698.751 524.66 668.985 532.614 644.302 548.453C640.923 530.944 635.903 512.944 631.929 495.45C629.964 486.791 628.91 478.17 627.107 469.965C626.584 480.353 638.406 546.359 643.27 550.248C645.907 549.788 646.353 549.365 648.735 547.999C652.228 562.626 656.506 577.242 659.9 591.55C675.129 587.597 682.44 585.512 697.45 590.956C671.184 588.79 660.628 595.72 635.938 602.074C624.774 604.841 613.398 606.636 601.923 607.437C588.922 608.442 566.187 609.112 553.211 607.638C536.761 605.77 513.636 589.922 497.568 587.36C489.992 586.151 462.532 595.725 456.439 601.68C453.103 604.94 450.056 608.825 447.357 612.561C442.742 595.288 437.242 580.678 438.468 562.756C438.843 557.28 438.377 556.355 433.152 555.554C431.004 553.252 423.596 522.355 422.006 517.033C416.693 499.252 409.873 501.344 393.031 501.344C397.314 482.214 407.335 452.023 420.868 437.72C427.004 431.236 434.698 425.833 442.231 421.055C450.138 416.106 458.122 411.279 466.181 406.58C450.659 391.982 437.45 372.854 436.777 350.797C436.727 349.387 436.701 347.976 436.698 346.565C440.18 358.33 441.678 363.028 451.151 371.429C452.84 366.627 453.288 364.471 457.513 361.431Z" fill="#0F110F"/>
<path d="M485.81 231.389C494.185 231.051 502.513 232.801 510.043 236.484C529.285 245.877 536.725 262.512 543.142 281.522C537.917 285.834 535.751 287.532 535.711 294.721L536.226 295.081C540.14 289.029 547.37 277.065 556.188 287.506C560.514 292.628 560.179 306.559 558.669 312.787C556.891 320.125 554.311 329.705 544.565 327.375L542.703 328.853C540.407 327.573 535.57 314.573 533.834 310.829C533.805 312.708 533.725 314.585 533.591 316.459C532.303 334.364 527.762 344.193 514.255 355.799C512.628 355.36 511.619 354.383 510.255 353.278C501.177 345.921 495.367 351.499 485.544 352.959C483.509 352.015 485.561 349.612 483.152 346.727L481.971 346.765C482.056 347.911 482.094 348.879 482.116 350.028C479.402 353.739 472.402 358.537 467.814 359.59C457.819 361.976 459.863 349.012 460.126 342.934C460.712 329.339 457.806 325.999 447.07 318.873C439.399 318.422 435.512 318.707 428.709 322.321C427.26 315.787 425.876 309.609 425.236 302.924C421.567 264.573 448.173 234.849 485.81 231.389Z" fill="#E8E7E1"/>
<path d="M488.512 304.106C491.821 303.898 498.409 304.296 500.703 306.875C498.623 310.06 483.666 312.827 476.611 315.957C473.147 317.679 469.948 319.349 466.442 317.236C465.906 309.006 482.563 305.271 488.512 304.106Z" fill="#0F110F"/>
<path d="M548.622 288.125C551.621 288.501 551.993 289.118 553.532 291.046C550.701 291.241 547.211 291.834 546.606 294.801C544.697 304.157 555.735 299.657 551.624 311.992C550.426 313.744 548.66 316.587 546.608 316.9C545.876 305.794 536.036 299.308 548.622 288.125Z" fill="#0F110F"/>
<path d="M493.173 319.031C495.69 319.185 495.435 318.801 497.285 319.98C494.985 323.097 489.068 327.894 485.045 327.804L482.735 326.432C480.235 326.677 479.652 327.11 478.25 325.002L478.797 323.577C482.424 320.539 488.578 319.463 493.173 319.031Z" fill="#0F110F"/>
<path d="M502.126 359.59C511.011 368.544 503.108 388.462 493.664 386.256L492.697 384.697C492.349 381.856 493.861 379.46 495.099 376.728C485.772 380.828 483.608 381.62 473.458 382.568C475.695 386.475 476.738 387.33 475.987 391.136C466.644 388.012 463.51 380.22 460.609 371.598C478.283 382.591 491.539 376.855 502.126 359.59Z" fill="#E8E7E1"/>
<path d="M494.953 363.367L495.732 363.768C490.354 370.801 480.935 376.097 471.932 374.618C470.705 374.046 470.136 373.645 469.008 372.931C471.555 371.116 488.51 366.509 494.953 363.367Z" fill="#E8E7E1"/>
<path d="M378.852 998.375C378.63 993.723 378.591 988.894 378.656 984.228C379.638 913.956 379.813 843.719 381.974 773.455C382.286 763.323 382.178 753.276 383.838 743.271C385.829 730.495 390.758 718.349 398.239 707.8C407.858 694.507 418.347 687.897 433.575 681.887C448.335 676.054 460.459 676.273 475.861 674.237L539.215 665.951C547.427 664.876 555.719 664.098 563.915 662.953C573.763 661.574 573.201 656.229 571.374 648.324C579.075 650.078 587.587 651.803 594.981 654.362C597.865 654.263 601.068 653.889 603.45 655.72C606.342 657.954 607.664 658.93 610.853 660.718L609.594 662.097C631.357 673.374 664.043 700.864 680.319 719.19C679.336 732.037 672.746 752.265 663.732 761.209C628.232 796.44 541.535 800.979 493.846 803.235C496.036 787.475 494.593 773.299 488.767 758.381C489.807 768.505 492.727 778.312 492.567 788.585C492.272 807.435 474.947 998.34 473.736 999.655C471.255 1002.35 463.156 1002.75 459.568 1003.32L459.434 1017.1C468.387 1023.2 473.818 1041.74 477.757 1051.64C482.168 1062.72 484.528 1072.43 475.758 1081.93C469.068 1089.17 461.63 1095.66 454.436 1102.44C445.795 1110.8 438.149 1120.13 429.048 1128.03C423.341 1133.06 417.215 1137.59 410.739 1141.58C393.56 1152.05 370.469 1160.05 350.359 1155.65C337.866 1152.75 332.046 1140.37 335.797 1128.48C340.988 1112.02 355.454 1099.83 365.488 1085.84C373.609 1074.46 380.552 1062.28 386.211 1049.5C390.981 1038.8 391.32 1026.73 400.218 1021.58C400.79 1015.2 401.265 1008.81 401.646 1002.41C395.193 1001.54 384.814 1000.26 378.852 998.375Z" fill="#0F110F"/>
<path d="M594.984 654.365C597.869 654.266 601.071 653.891 603.454 655.722C606.346 657.956 607.668 658.932 610.857 660.721L609.598 662.1C605.278 659.597 599.49 656.733 594.984 654.365Z" fill="#E8E7E1"/>
<path d="M476.473 1058.8C477.903 1060.18 478.481 1064.41 478.698 1066.35C479.35 1072.16 475.743 1077.29 471.897 1081.45C465.796 1088.61 456.544 1094.93 450.416 1101.82C427.568 1127.5 400.806 1151.05 364.764 1153.65C356.255 1154.26 348.221 1152.8 341.566 1146.74C340.076 1144.49 337.086 1138.5 338.181 1136.01C340.291 1135.97 344.555 1137.88 346.602 1138.82C354.17 1142.31 364.726 1141.33 372.768 1139.76C406.52 1133.22 427.389 1111.59 449.813 1087.8C460.155 1076.82 467.315 1072.19 476.473 1058.8Z" fill="#E8E7E1"/>
<path d="M405.083 1002.7C423.136 1004.74 438.201 1004.63 456.193 1003.57C455.514 1017.13 459.695 1023.73 450.813 1034.13C447.939 1036.39 442.353 1039.55 438.621 1039.73C432.648 1040.01 429.897 1031.78 425.89 1027.94C419.094 1021.4 411.924 1021.51 403.25 1021.5C404.251 1014.91 404.627 1009.33 405.083 1002.7Z" fill="#E8E7E1"/>
<path d="M375.189 1084.69C380.343 1084.64 398.62 1086.93 400.004 1092.53L398.999 1093.43L397.473 1092.91C392.842 1090.94 369.839 1086.84 369.445 1086.52C371.419 1084.88 372.408 1085.17 375.189 1084.69Z" fill="#E8E7E1"/>
<path d="M387.096 1053.66C395.823 1052.69 408.561 1053.61 415.967 1059.05C417.087 1059.87 416.669 1061.31 416.605 1062.58C409.574 1059.17 404.15 1057.62 396.445 1056.76C394.218 1056.51 388.579 1056.44 386.945 1055.62L387.096 1053.66Z" fill="#E8E7E1"/>
<path d="M379.466 1069.23C387.869 1068.6 401.872 1069.74 408.712 1075.76C409.341 1076.31 408.856 1077.82 408.729 1078.68C403.197 1076.05 402.842 1075.92 397.279 1074.2C393.244 1072.97 380.093 1071.81 378.828 1071.07L379.466 1069.23Z" fill="#E8E7E1"/>
<path d="M290.941 673.715C302.59 673.46 315.227 674.104 326.994 674.365L383.265 675.461C398.451 675.772 425.334 675.016 439.422 676.889C424.78 681.909 414.329 686.837 403.146 698.058C378.239 723.051 379.787 753.701 378.98 785.97C378.407 803.271 378.136 820.579 378.166 837.887L331.092 831.807C333.074 825.274 341.696 796.413 340.893 790.714C335.235 796.738 305.101 922.477 298.182 938.661C293.986 948.474 288.564 981.697 282.726 990.344C278.487 992.261 271.435 990.253 266.64 989.376C265.591 993.795 264.797 999.147 264.005 1003.69C271.251 1010.91 269.778 1024.77 271.683 1033.44C280.445 1073.3 259.891 1069.41 232.631 1084.83C213.529 1095.64 201.194 1103.27 179.125 1110.17C158.206 1115.74 105.54 1123.57 109.553 1088.48C111.386 1072.45 138.906 1057.19 151.275 1048.7C157.355 1050.17 164.569 1051.15 170.379 1053.58C174.215 1055.19 178.526 1060.36 182.893 1060.3C183.514 1058.69 183.31 1059.2 182.503 1057.07C174.775 1050.41 163.956 1047.46 153.948 1046.69C158.343 1043.13 162.52 1039.41 166.763 1035.68C174.754 1037.02 180.947 1038.75 188.196 1042.83C191.022 1044.43 192.98 1046.98 195.987 1048.23L197.249 1046.55L196.781 1044.81C191.064 1038.61 177.818 1034.6 169.6 1033.12C171.154 1031.48 177.852 1024.38 178.868 1023.38C183.757 1018.6 205.354 1033.78 208.719 1034.15L209.549 1033.23L209.349 1031.55C202.817 1025.04 191.089 1021.26 181.945 1020.32C186.481 1014.89 190.317 1009.55 194.013 1003.52C197.603 997.648 199.416 994.926 206.131 993.095C207.96 986.696 209.462 980.262 211.021 973.793C203.754 970.929 196.53 967.953 189.352 964.87C190.349 956.096 194.071 940.817 196.059 931.654L209.203 871.379C216.091 839.04 223.329 806.778 230.914 774.601C235.113 756.239 239.155 735.644 245.213 717.947C253.188 694.636 269.496 683.535 290.941 673.715Z" fill="#0F110F"/>
<path d="M269.793 1048.41C271.136 1055.63 269.792 1061.86 263.323 1066.13C254.05 1072.25 243.313 1075.46 233.542 1080.63C223.232 1086.1 213.369 1092.48 202.974 1097.79C181.311 1108.35 129.852 1123.02 113.542 1099.56C112.694 1097 111.202 1090.36 112.305 1088.02C114.265 1087.68 121.124 1094.58 124.147 1095.52C150.828 1104.17 188.399 1094.38 212.195 1080.14C229.436 1069.82 254.642 1060.26 269.793 1048.41Z" fill="#E8E7E1"/>
<path d="M214.393 975.145C230.429 980.659 246.781 985.206 263.36 988.769C261.154 998.583 262.091 1008.52 254.8 1014.42C250.381 1017.13 242.777 1020.3 237.558 1019C230.853 1017.32 229.911 1008.73 226.666 1003.55C222.301 996.575 216.557 995.309 209.227 993.485C211.382 987.214 212.77 981.571 214.393 975.145Z" fill="#E8E7E1"/>
<path d="M217.913 503.572C256.028 502.88 297.999 503.919 336.469 504.031L382.133 504.187C390.527 504.223 399.339 503.782 407.682 504.742C410.747 505.096 413.453 506.36 415.315 508.921C421.226 517.058 445.006 615.526 449.645 633.492C451.893 642.188 454.902 650.899 456.691 659.695C457.196 662.176 457.665 665.379 457.03 667.861C456.266 670.837 453.884 672.039 451.388 673.411C438.204 672.895 424.303 673.107 411.016 672.902C380.278 672.336 349.535 671.997 318.792 671.891C301.148 671.771 283.462 671.877 265.836 671.361C260.783 671.163 255.107 668.964 253.45 663.682C238.409 615.745 224.83 567.242 210.681 519.025C208.411 511.29 209.446 505.815 217.913 503.572Z" fill="#0F110F"/>
<path d="M456.305 646.213C463.963 637.778 470.825 627.851 480.891 622.28C484.685 620.18 501.927 614.634 504.933 617.67C501.162 622.209 485.293 621.665 479.792 627.222C476.088 630.962 464.525 639.97 463.873 645.068C470.17 653.191 481.73 639.715 488.47 636.923C492.647 635.197 504.919 633.854 508.764 635.629C519.654 640.663 528.293 645.237 539.794 648.999L539.23 649.925C535.238 649.904 532.161 648.97 529.18 651.855L527.877 651.65C522.068 651.516 515.51 652.795 509.721 653.312C494.006 654.704 474.99 658.537 459.534 658.232C458.371 654.415 457.333 650.109 456.305 646.213Z" fill="#0F110F"/>
<path d="M527.882 651.647C520.086 648.458 488.369 650.537 477.852 647.044C482.69 645.672 528.452 649.321 539.799 648.995L539.235 649.922C535.243 649.9 532.166 648.967 529.184 651.852L527.882 651.647Z" fill="#E8E7E1"/>
<path d="M557.971 650.738C562.277 650.285 565.873 648.949 569.126 651.94C569.988 654.669 569.971 653.537 569.268 656.238C564.829 661.81 543.165 662.51 535.21 663.535L469.953 672.097C465.73 672.762 461.64 672.96 457.383 673.235C460.704 668.201 460.831 667.332 460.532 661.294L557.971 650.738Z" fill="#0F110F"/>
<path d="M495.569 601.047L496.365 601.21L496.745 602.244C492.224 607.073 477.919 606.906 469.963 613.801C462.226 620.509 459.885 624.681 453.777 633.038C452.682 632.458 452.976 632.352 452.148 630.917C452.204 629.786 452.254 629.185 452.901 628.223C465.955 608.796 473.504 605.683 495.569 601.047Z" fill="#0F110F"/>
<path d="M445.149 331.604C448.491 331.456 452.943 331.657 456.376 331.718C452.037 334.352 450.388 336.501 446.52 339.609C444.092 338.409 441.76 337.463 439.357 336.256L439.047 335C440.872 333.031 442.634 332.606 445.149 331.604Z" fill="#0F110F"/>
</g>
<defs>
<clipPath id="clip0_1310_5">
<rect width="979" height="1169" fill="white"/>
</clipPath>
</defs>
</svg>
