<svg width="780" height="988" viewBox="0 0 780 988" fill="none" xmlns="http://www.w3.org/2000/svg">
<g clip-path="url(#clip0_1310_45)">
<path d="M0 0H72.8154H154.362H780V584.536V677.634V988H0V0Z" fill="#E8E7E1"/>
<path d="M72.817 0H154.363C146.408 34.522 138.068 68.9545 129.347 103.291C104.611 203.017 66.9933 352.676 124.253 445.633C125.246 447.235 126.268 448.819 127.32 450.384L130.877 455.276C157.377 491.125 194.785 512.491 237.069 524.807C231.902 533.462 229.008 546.323 226.811 556.228C222.067 577.618 216.118 599.472 212.359 621.012C208.471 619.333 203.598 617.92 199.484 616.405C189.993 612.902 180.555 609.516 171.332 605.314C120.623 582.211 76.1874 543.733 48.719 494.984C4.41209 416.349 4.95136 319.011 19.0885 232.301C23.9273 202.622 31.1515 173.102 38.3634 143.883C42.2486 128.29 46.2314 112.722 50.3118 97.1795C52.4579 88.7666 54.3671 79.8601 56.7211 71.5629L61.3592 51.7909L61.7161 51.7769C63.5352 50.236 66.03 48.7473 68.41 48.4134C68.6551 45.8341 67.2441 37.5597 66.126 35.1998L65.4473 35.1597L65.8303 32.8538L66.1665 31.0932C67.7072 24.5904 69.4978 17.3445 70.614 10.8209C71.3694 7.21824 72.1036 3.6112 72.817 0Z" fill="#0F110F"/>
<path d="M70.612 10.8203C71.1991 12.305 72.7152 14.1399 72.6959 15.2801L71.284 13.6231C69.2209 14.5541 70.8619 18.0095 71.5049 19.619C69.8981 22.7792 67.3058 24.3223 67.6126 27.7644C68.6029 28.8993 68.2851 28.6166 70.2705 28.756C70.9222 28.7964 71.5744 28.8301 72.2265 28.8571L72.4446 29.2714C72.7248 29.7954 72.9853 30.2374 73.2897 30.7441C75.9297 30.9023 80.9662 29.0474 83.2054 27.7245L83.8807 27.9821L84.3756 29.1557C83.7201 30.1144 83.6328 30.0723 82.8166 30.7524C81.1867 32.1108 81.6213 33.3061 79.9542 35.0102C79.739 36.4682 79.8529 37.8073 78.9378 38.5226C76.0489 38.2156 75.991 36.6012 73.8806 36.703C74.115 37.7867 74.2409 37.8404 74.8396 38.7979C73.1918 40.7649 68.1944 38.7104 68.7052 44.7187C68.8417 46.3294 68.2547 46.2549 69.2426 47.4754C70.8793 48.0522 70.2831 47.5352 71.0814 49.0892C70.9352 50.8997 71.2266 50.3594 70.2242 51.6446C69.0544 51.2857 69.5624 51.6161 68.8046 50.4212L69.122 49.2662L68.4081 48.4128C68.6531 45.8335 67.2422 37.5591 66.124 35.1992L65.4453 35.1591L65.8283 32.8532L66.1645 31.0926C67.7052 24.5898 69.4958 17.3439 70.612 10.8203Z" fill="#0F110F"/>
<path d="M66.1643 31.0938C69.69 30.9084 72.7068 30.2305 73.4506 34.5243C72.5216 37.1622 71.0812 37.9537 68.3924 37.2907L67.6674 36.6444L69.6939 35.6388L69.5598 35.0411C67.5488 34.4732 67.1074 34.5034 65.8281 32.8544L66.1643 31.0938Z" fill="#0F110F"/>
<path d="M61.3568 51.7913L61.7137 51.7773L62.2675 53.0172C63.8868 52.94 66.2153 52.4879 67.2437 53.254L66.878 53.8132L66.4979 53.7789C65.319 53.6824 65.0209 53.5874 63.8796 53.9762L63.5424 54.3718L66.6562 55.2706C65.7454 55.8051 65.3316 55.8856 64.7734 56.6966C65.1666 57.7632 65.9881 59.3157 65.6716 60.1512L64.3953 59.6683L63.4397 60.1387L63.4923 61.0751C65.8207 62.0235 67.1303 61.0977 68.6932 62.2256C67.8983 63.8138 68.3059 63.6189 67.0223 64.2142C65.0166 62.7934 64.7918 62.0365 62.7397 61.9946L61.5343 62.8711C61.5613 63.6034 61.5521 64.3034 61.4581 65.0304L59.1721 65.9277C58.6024 67.6702 58.9005 68.0654 59.4596 69.9289C58.709 71.1519 58.4529 71.1403 56.7188 71.5634L61.3568 51.7913Z" fill="#0F110F"/>
<path d="M127.315 450.383L130.872 455.276C129.994 455.345 129.115 455.388 128.235 455.407C126.321 455.433 125.623 454.996 124.273 453.701L124.283 452.669C125.513 451.168 125.554 450.993 127.315 450.383Z" fill="#0F110F"/>
<path d="M186.794 581.633L187.629 582.549C187.973 584.45 187.455 585.328 186.799 587.166C186.037 585.893 186.61 583.273 186.794 581.633Z" fill="#0F110F"/>
<path d="M656.205 579.619C667.666 579.494 690.728 578.611 701.538 579.33C705.754 579.233 722.049 579.175 725.633 579.822C742.362 580.039 763.471 582.456 779.997 584.535V677.633C756.085 669.803 739.443 664.747 714.071 660.912C660.971 652.885 609.096 659.33 555.895 662.398C531.583 663.734 507.223 664 482.883 663.194C484.523 651.172 485.246 633.506 486.062 621.025C486.52 621.05 486.973 621.069 487.432 621.083C498.454 621.411 522.182 619.24 533.561 617.962C573.314 613.495 626.013 608.207 656.205 579.619Z" fill="#0F110F"/>
<path d="M701.546 579.332C705.762 579.236 722.056 579.178 725.64 579.825C722.876 580.22 718.019 580.066 715.067 580.061C712.621 583.911 712.09 587.225 709.876 590.578C706.037 592.589 702.848 589.082 699.611 588.204C698.767 587.973 699.037 589.338 697.47 589.492C697.286 588.571 698.676 586.974 699.356 585.932C703.933 589.063 703.408 589.241 708.555 588.513C709.153 585.261 709.51 586.091 708.154 583.689L708.55 583.105L709.384 583.298L710.605 585.396L711.198 585.141C711.719 583.39 711.777 584.205 711.159 582.598C708.251 580.143 705.284 580.403 701.956 579.453L701.546 579.332Z" fill="#0F110F"/>
<path d="M751.435 661.043L751.788 661.68C750.905 663.016 749.844 663.281 748.324 663.966C747.779 663.146 747.88 663.609 747.909 662.592C749.217 662.08 750.172 661.651 751.435 661.043Z" fill="#0F110F"/>
<path d="M65.4475 35.1602L66.1262 35.2003C67.2443 37.5602 68.6553 45.8346 68.4102 48.4139C66.0302 48.7478 63.5354 50.2365 61.7163 51.7774L61.3594 51.7914C62.4423 47.093 63.971 39.5129 65.4475 35.1602Z" fill="#0F110F"/>
<path d="M442.998 135.366C438.235 135.633 434.127 135.732 429.391 136.672C426.453 137.254 421.848 140.42 420.226 140.13C417.833 137.71 417.594 133.293 416.798 130.051C413.046 114.753 411.926 99.8729 416.556 84.5439C421.682 67.5757 435.297 52.651 450.88 44.4511C465.11 36.7987 481.829 35.2282 497.233 40.0971C516.306 46.1807 529.846 62.3385 535.837 80.9475C536.773 83.8574 537.632 87.0091 539.035 89.7131C544.327 90.4396 550.226 91.376 552.817 96.8452C557.091 106.107 556.357 118.445 553.603 128.047C551.167 136.545 545.842 144.14 535.963 140.999L535.35 140.802C536.715 144.891 539.055 151.652 539.826 155.623C542.267 168.192 536.411 184.675 529.185 194.914C516.846 212.393 505.481 223.069 484.103 227.324C497.247 242.352 514.087 239.157 530.391 230.717C552.185 219.439 566.203 202.826 573.38 179.299C560.043 173.551 555.373 166.34 552.421 152.064C556.546 158.042 560.434 166.439 566 171.004C568.861 173.349 575.59 175.232 579.405 176.529C609.173 186.65 645.211 190.308 671.949 208.161C700.226 227.037 714.195 270.246 723.331 301.386C726.78 313.126 730.326 326.172 732.685 338.125C730.63 341.132 729.491 342.039 726.674 344.206C728.946 357.481 730.914 370.806 732.579 384.171C735.116 404.45 738.782 446.499 726.149 464.203C719.313 473.787 697.37 476.624 685.798 477.889C685.137 489.42 681.785 526.137 677.434 534.623C655.857 507.067 623.49 484.615 593.095 467.822C621.589 475.077 656.426 477.773 685.629 474.467C696.796 473.203 715.908 471.642 723.264 462.216C738.922 442.14 729.501 382.757 725.666 358.377C724.504 350.969 722.796 343.642 721.899 336.196C690.028 335.669 665.292 344.787 637.56 359.988C637.232 357.899 636.789 355.992 636.326 353.937C631.526 332.581 625.255 311.229 621.734 289.62L621.083 289.928L620.624 293.078C622.829 309.6 626.287 325.307 630.687 341.376C631.733 345.2 634.136 360.643 637.155 361.789C639.012 361.417 640.31 360.327 641.911 359.251C644.555 372.857 649.793 390.213 653.46 403.979C667.154 399.287 677.583 398.279 691.032 403.689C672.851 400.807 660.353 404.652 643.498 410.338C614.059 420.271 582.15 421.977 551.283 420.672C536.903 418.684 519.446 411.081 506.316 405.154C487.662 396.737 486.649 398.953 467.454 404.721C451.052 409.648 449.196 411.296 439.457 425.26C437.209 417.604 435.486 409.711 433.248 402.081C429.959 390.871 430.466 379.942 430.183 368.318L424.735 367.755C421.797 358.329 418.739 346.924 416.194 337.437C409.668 313.105 409.1 312.94 384.609 313.022C385.356 309.6 386.216 306.204 387.188 302.839C402.257 250.912 412.611 242.813 458.519 217.564C442.891 202.55 427.432 181.05 429.05 158.271C432.501 169.746 435.167 174.073 443.044 182.663C443.894 176.809 446.045 174.929 450.524 171.608C444.732 160.677 455.588 147.462 442.998 135.366Z" fill="#0F110F"/>
<path d="M620.624 293.08C620.127 288.485 619.857 285.217 620.252 280.621C621.058 281.681 621.748 288.105 621.733 289.622L621.082 289.93L620.624 293.08Z" fill="#E8E7E1"/>
<path d="M475.389 41.6656C485.412 40.0886 499.72 44.3922 508.151 49.8205C522.714 59.1926 531.72 75.1984 535.444 91.7517C528.199 96.3024 527.938 100.968 527.181 108.635C529.439 103.938 532.188 97.2117 536.978 94.7152C539.342 93.5092 542.091 93.3007 544.609 94.1358C558.979 98.9919 552.786 144.546 536.838 137.413C534.103 138.004 537.171 138.222 534.991 139.194C533.148 136.541 528.025 124.147 526.443 120.515C526.404 121.667 526.356 122.818 526.298 123.968C525.483 140.403 522.391 151.954 509.719 163.427L505.749 166.282C496.473 156.691 488.08 160.834 476.727 163.679C476.796 161.317 477.341 156.666 473.986 156.033C477.521 166.708 468.637 163.408 467.269 164.9C454.837 178.457 450.215 167.001 452.461 154.485C455.953 135.028 437.175 121.262 421.019 133.015C419.49 126.545 418.275 120.253 417.435 113.657C412.788 77.1951 439.337 45.8205 475.389 41.6656Z" fill="#E8E7E1"/>
<path d="M482.448 114.039C485.738 114.038 493.605 114.231 494.02 118.414C492.144 120.489 483.553 121.107 480.56 121.951C476.53 123.088 472.749 124.762 468.939 126.471C465.824 127.825 460.889 130.218 458.383 126.989C458.283 118.621 476.186 114.762 482.448 114.039Z" fill="#0F110F"/>
<path d="M540.396 98.3675C543.334 98.1316 546.03 98.1841 546.836 101.603L546.387 101.942C539.803 98.8238 539.219 104.812 537.734 109.975C545.075 111.132 546.633 114.873 544.887 121.762C543.551 124.114 542.432 125.63 540.208 127.125C538.901 127.041 539.007 123.106 538.616 121.276C537.975 118.301 536.817 117.725 534.531 115.604C534.473 113.803 534.526 112 534.685 110.206C535.143 105.303 536.576 101.574 540.396 98.3675Z" fill="#0F110F"/>
<path d="M483.127 129.404C485.462 129.298 489.056 128.633 490.556 130.458C490.209 133.217 486.229 131.745 484.285 133.512C483.778 135.375 483.769 135.604 482.746 137.193C481.028 138.475 479.753 138.581 477.687 139.007C475.581 138.217 476.106 137.232 474.187 136.184C473.245 136.883 473.158 137.047 472.003 137.353C470.578 136.26 471.078 136.932 470.43 135.277C471.209 131.695 480.03 129.914 483.127 129.404Z" fill="#0F110F"/>
<path d="M495.065 169.734C498.451 176.253 500.034 181.137 497.091 188.335C495.33 192.652 489.904 199.21 484.848 197.115C483.633 193.873 486.86 191.934 486.228 188.81C483.985 187.886 475.796 192.071 472.777 192.562C470.472 192.937 468.372 193.194 466.045 193.433C467.121 195.638 468.157 198.366 468.116 200.839L467.291 201.361C459.382 198.86 455.14 190.353 453.328 182.797C462 187.473 467.86 190.168 477.515 186.294C486.416 182.723 490.314 177.547 495.065 169.734Z" fill="#E8E7E1"/>
<path d="M488.127 173.715L488.464 174.451C482.233 181.484 472.475 187.431 462.811 184.922C461.882 184.367 461.884 184.442 461.344 183.523C463.889 181.368 481.836 176.925 488.127 173.715Z" fill="#E8E7E1"/>
<path d="M393.685 819.288C388.044 818.492 375.939 817.46 371.306 814.715C369.826 813.837 370.423 791.621 370.443 789.137C370.61 768.6 370.911 748.063 371.345 727.531L373.232 616.618C373.879 586.211 370.804 553.435 386.811 526.646C399.747 504.995 421.468 493.986 445.67 489.963C455.234 488.371 465.818 487.797 475.535 486.504C495.856 483.715 516.193 481.051 536.549 478.516C543.891 477.539 551.637 477.096 558.839 475.726C566.446 474.279 565.964 467.329 564.092 461.734C577.208 463.344 589.321 467.049 600.753 473.778C627.53 489.538 652.994 509.853 673.828 532.922C671.421 547.332 667.991 564.174 657.471 574.999C622.783 610.718 533.375 616.14 486.117 617.998C487.892 604.601 487.245 599.69 485.104 586.587L484.298 586.201L483.574 587.012C486.3 607.283 483.232 628.543 481.511 649.08C478.91 679.077 476.132 709.06 473.179 739.018L468.917 786.392C468.16 795.62 467.527 808.265 466.089 817.165C461.782 818.646 456.039 819.336 451.471 819.93L451.523 833.77C454.568 836.105 457.41 838.966 459.041 842.729C464.509 855.393 471.118 869.301 473.433 882.963C476.18 899.177 455.744 910.784 446.065 921.089C436.219 931.577 426.576 942.499 415.42 951.573C408.96 956.735 401.982 961.217 394.597 964.941C378.839 972.925 339.513 985.815 328.331 964.473C318.849 946.377 339.603 926.246 350.203 912.941C355.725 905.892 360.832 898.531 365.498 890.889C373.635 877.473 380.166 863.849 384.228 848.764C385.442 844.253 387.588 841.151 391.954 839.13C392.618 832.54 393.028 825.907 393.685 819.288Z" fill="#0F110F"/>
<path d="M479.898 570.258C482.876 575.14 484.405 580.944 485.104 586.588L484.299 586.202L483.575 587.012C483.059 585.879 480.361 572.487 479.898 570.258Z" fill="#E8E7E1"/>
<path d="M468.498 876.348C478.796 894.564 452.334 908.834 442.179 920.084C436.803 926.042 430.672 931.797 425.442 937.856C408.589 957.385 354.999 987.063 332.771 965.051C329.713 960.656 329.665 957.351 329.344 952.155C339.555 962.619 358.566 960.173 371.303 956.671C388.415 951.967 403.966 942.922 417.022 930.958C426.134 922.607 434.418 913.349 443.102 904.569C452.264 895.379 461.857 887.767 468.498 876.348Z" fill="#E8E7E1"/>
<path d="M397.002 819.539C417.032 821.319 427.747 821.797 448.069 820.485C447.934 825.714 448.245 831.083 448.397 836.318C448.602 843.298 448.151 846.029 443.278 851.104C437.022 856.618 434.11 856.517 426.235 856.493C420.845 853.14 421.204 847.877 417.071 843.892C411.727 838.735 402.07 838.677 395.203 838.918C396.301 832.463 396.712 826.066 397.002 819.539Z" fill="#E8E7E1"/>
<path d="M363.513 903.286C368.975 902.745 374.49 903.17 379.804 904.55C382.645 905.288 392.205 907.454 391.015 911.444L390.036 911.752L389.098 911.101C379.485 906.827 370.569 905.336 360.182 905.732L359.992 905.085C361.232 903.879 361.805 903.845 363.513 903.286Z" fill="#E8E7E1"/>
<path d="M381.341 870.941C386.602 870.396 408.063 872.137 408.382 879.074L407.631 879.542L406.352 878.973C399.626 875.857 394.02 874.308 386.571 873.507C384.512 873.285 379.066 873.691 378.312 873.189C378.909 872.127 380.235 871.568 381.341 870.941Z" fill="#E8E7E1"/>
<path d="M373.475 886.832C378.318 886.895 399.344 888.863 400.99 894.363L400.16 895.54L399.25 895.684C392.7 892.438 384.204 890.252 376.942 889.288C375.325 889.075 373.077 889.249 370.93 889.008L370.711 888.492C371.748 887.483 372.175 887.392 373.475 886.832Z" fill="#E8E7E1"/>
<path d="M202.007 790.279C200.8 789.869 199.596 789.449 198.395 789.02C194.602 787.669 181.954 783.419 180.399 780.143C180.664 774.234 185.265 754.594 186.794 747.459C191.651 724.554 196.637 701.673 201.751 678.825L222.613 585.911C226.17 570.174 230.947 545.6 236.314 531.035C239.975 521.107 245.945 512.192 253.73 505.028C260.625 498.645 272.645 490.295 281.718 487.603C285.292 486.546 297.143 487.145 301.637 487.231C313.132 487.434 324.626 487.709 336.118 488.056C368.94 488.462 401.759 489.045 434.575 489.812C421.283 492.553 405.374 501.072 395.95 510.682C369.081 538.083 371.338 569.875 370.862 604.658L370.124 607.089C367.018 609.665 339.897 603.698 332.644 604.547C329.992 610.674 324.807 631.051 322.547 638.953L290.158 752.708L280.223 787.51C278.626 793.053 277.058 798.717 275.358 804.226C274.923 805.635 274.455 807.14 273.029 807.622C269.653 808.761 260.992 806.947 257.548 806.132C256.4 811.134 255.355 816.161 254.414 821.207C256.696 822.833 258.101 824.174 258.929 827.001C262.107 837.841 262.11 850.071 263.733 861.147C265.845 875.576 265.013 882.648 251.405 889.923C242.813 894.521 233.86 897.84 225.107 902.105C211.205 909.601 199.46 917.889 184.601 923.939C175.324 927.61 165.686 930.292 155.846 931.938C139.958 934.523 108.311 936.361 100.997 919.496C91.1964 896.89 122.852 879.754 137.558 869.252C139.284 868.017 140.279 867.115 142.169 866.265C148.606 866.815 155.967 869.469 161.957 871.784C164.732 872.855 171.348 878.939 173.285 878.07C173.51 877.491 173.955 876.763 173.45 876.17C166.778 868.374 153.979 864.423 144.149 864.326C148.558 861.031 153.187 856.906 157.142 853.062C163.869 853.887 167.226 854.76 173.603 857.538C178.504 859.676 181.07 861.996 185.452 864.929C186.009 865.305 186.828 865.117 187.453 864.915L187.842 864.181C185.098 856.839 167.259 851.72 160.101 850.288C161.747 848.662 170.193 839.626 171.049 839.264L173.072 838.208C172.831 836.384 179.158 829.481 180.626 827.155C183.014 823.364 185.676 819.442 188.037 815.611C190.361 811.843 193.256 811.076 197.358 810.29C198.471 803.763 200.357 796.729 202.007 790.279Z" fill="#0F110F"/>
<path d="M173.069 838.209C181.665 837.104 191.185 842.821 198.121 847.471C199.196 848.195 199.832 848.895 200.055 850.173C199.389 851.543 199.874 851.08 198.765 851.804C195.811 850.853 191.699 846.912 187.956 844.944C183.288 842.488 174.615 841.147 171.047 839.265L173.069 838.209Z" fill="#E8E7E1"/>
<path d="M260.724 865.41C261.571 866.727 261.544 873.066 261.002 874.875C256.96 888.388 233.818 893.135 222.778 899.542C212.253 905.644 202.666 911.462 192.727 916.658C172.746 927.097 118.803 940.736 104.171 918.592C101.338 912.866 102.346 910.015 103.345 903.956C109.528 915.751 125.477 916.928 137.013 916.971C170.629 917.106 198.199 901.269 226.488 885.218C237.373 879.043 251.554 874.89 260.724 865.41Z" fill="#E8E7E1"/>
<path d="M204.876 791.438C217.456 796.734 240.932 802.76 254.224 805.51C252.735 811.226 250.854 821.478 250.273 827.209C248.935 828.714 247.359 830.084 245.87 831.45C245.105 831.956 244.323 832.443 243.527 832.902C238.888 835.545 232.018 836.973 226.862 835.343C218.18 832.593 221.044 826.418 217.989 820.595C214.63 814.198 206.629 812.442 200.273 810.686C201.993 804.945 203.734 797.323 204.876 791.438Z" fill="#E8E7E1"/>
<path d="M207.891 315.096C216.405 314.631 227.16 314.967 235.853 314.994L286.373 315.123L354.314 315.481C368.109 315.524 381.902 315.449 395.696 315.672C403.134 315.793 407.007 318.049 409.442 325.169C412.107 332.96 413.923 341.038 416.145 348.971C422.253 370.53 428.015 392.185 433.431 413.927L444.686 457.443C446.381 464.008 451.333 475.837 448.873 482.586C448.064 484.8 445.401 485.996 443.239 486.715C409.883 487.193 375.349 485.697 341.853 485.345C322.407 485.287 302.961 485.128 283.516 484.868C280.238 484.834 275.995 484.631 272.777 484.747C241.958 485.856 245.493 481.413 236.964 452.827C231.738 435.465 226.65 418.062 221.7 400.619L207.179 351.118C205.077 343.771 202.806 336.311 201.026 328.89C199.35 321.906 201.768 317.899 207.891 315.096Z" fill="#0F110F"/>
<path d="M332.642 604.548C339.895 603.699 367.015 609.667 370.122 607.091L370.86 604.659C370.916 620.15 370.149 637.811 369.914 653.442C355.661 651.85 336.706 649.582 322.797 646.698C324.639 640.325 334.087 607.8 332.642 604.548Z" fill="#0F110F"/>
<path d="M553.498 463.314C556.04 463.062 558.973 462.564 561.284 463.516C563.961 466.484 562.345 472.371 558.626 472.945C546.48 474.818 534.184 476.006 521.98 477.514L458.747 485.72L449.406 486.873C452.83 482.094 453.394 480.17 452.521 474.424L553.498 463.314Z" fill="#0F110F"/>
<path d="M448.398 459.119C455.924 450.938 465.343 437.502 475.946 433.26C479.911 431.673 487.558 430.431 491.923 429.36C493.973 428.857 495.44 428.446 497.186 429.591L497.239 430.283C492.873 434.041 477.447 434.744 473.746 438.057C469.46 441.895 454.957 453.593 457.105 459.258C462.745 464.836 474.441 452.823 479.799 450.399C484.832 448.122 486.656 447.852 492.039 447.285C503.515 446.074 510.605 453.342 520.456 457.633C524.097 459.188 530.552 460.844 534.676 462.164C513.524 463.266 486.858 457.619 467.114 459.745C472.002 461.166 479.734 461.274 485.059 461.653C495.174 462.417 505.299 463.067 515.434 463.601L515.391 465.076C501.85 466.256 487.905 468.424 474.343 469.778C467.022 470.508 459.229 471.731 451.899 471.755C450.762 467.535 449.596 463.323 448.398 459.119Z" fill="#0F110F"/>
<path d="M486.339 413.484C487.81 413.273 487.776 413.295 489.252 413.541L489.614 414.051C486.397 418.698 470.369 419.492 463.788 424.728C456.491 430.534 450.97 437.887 445.837 445.551L445.071 446.439C444.36 444.946 444.064 443.962 443.555 442.378C459.984 420.1 460.212 420.564 486.339 413.484Z" fill="#0F110F"/>
<path d="M438.052 141.992C440.388 141.85 444.548 141.838 446.679 142.793L446.935 143.561L446.347 144.297L443.433 144.467C440.18 146.963 443.66 147.633 437.374 149.997C436.125 149.47 433.888 147.064 433.442 147.212C432.004 147.688 432.211 148.585 430.392 148.104L429.945 147.08C430.746 144.492 435.618 142.63 438.052 141.992Z" fill="#0F110F"/>
<path d="M515.434 463.601C519.25 463.552 521.169 463.568 524.922 464.051L515.391 465.076L515.434 463.601Z" fill="#0F110F"/>
</g>
<defs>
<clipPath id="clip0_1310_45">
<rect width="780" height="988" fill="white"/>
</clipPath>
</defs>
</svg>
